<?xml version="1.0" encoding="UTF-8" standalone="no"?>
<svg
   xmlns:dc="http://purl.org/dc/elements/1.1/"
   xmlns:cc="http://creativecommons.org/ns#"
   xmlns:rdf="http://www.w3.org/1999/02/22-rdf-syntax-ns#"
   xmlns:svg="http://www.w3.org/2000/svg"
   xmlns="http://www.w3.org/2000/svg"
   xmlns:sodipodi="http://sodipodi.sourceforge.net/DTD/sodipodi-0.dtd"
   xmlns:inkscape="http://www.inkscape.org/namespaces/inkscape"
   viewBox="0 0 22 22"
   id="svg6"
   version="1.1"
   sodipodi:docname="folder-games.svg"
   inkscape:version="0.92.5 (2060ec1f9f, 2020-04-08)">
  <metadata
     id="metadata8">
    <rdf:RDF>
      <cc:Work
         rdf:about="">
        <dc:format>image/svg+xml</dc:format>
        <dc:type
           rdf:resource="http://purl.org/dc/dcmitype/StillImage" />
        <dc:title></dc:title>
      </cc:Work>
    </rdf:RDF>
  </metadata>
  <sodipodi:namedview
     pagecolor="#ffffff"
     bordercolor="#666666"
     borderopacity="1"
     objecttolerance="10"
     gridtolerance="10"
     guidetolerance="10"
     inkscape:pageopacity="0"
     inkscape:pageshadow="2"
     inkscape:window-width="1085"
     inkscape:window-height="480"
     id="namedview6"
     showgrid="false"
     inkscape:zoom="10.727273"
     inkscape:cx="0.97881356"
     inkscape:cy="11"
     inkscape:window-x="0"
     inkscape:window-y="25"
     inkscape:window-maximized="0"
     inkscape:current-layer="svg6" />
  <defs
     id="defs3051">
    <style
       id="current-color-scheme"
       type="text/css">
      .ColorScheme-Text {
        color:#f9f9f9;
      }
    </style>
  </defs>
  <path
     d="m 3,3 v 16 h 5 v -4 h 6 v 4 h 5 V 3 H 13 V 5 H 9 V 3 Z m 1,1 h 4 v 2 h 6 V 4 h 4 V 18 H 15 V 14 H 7 v 4 H 4 Z M 7,7 V 9 H 5 v 1 h 2 v 2 h 1 v -2 h 2 V 9 H 8 V 7 Z m 7.5,0 A 0.5,0.5 0 0 0 14,7.5 0.5,0.5 0 0 0 14.5,8 0.5,0.5 0 0 0 15,7.5 0.5,0.5 0 0 0 14.5,7 Z m -2,2 A 0.5,0.5 0 0 0 12,9.5 0.5,0.5 0 0 0 12.5,10 0.5,0.5 0 0 0 13,9.5 0.5,0.5 0 0 0 12.5,9 Z m 4,0 A 0.5,0.5 0 0 0 16,9.5 0.5,0.5 0 0 0 16.5,10 0.5,0.5 0 0 0 17,9.5 0.5,0.5 0 0 0 16.5,9 Z m -2,2 A 0.5,0.5 0 0 0 14,11.5 0.5,0.5 0 0 0 14.5,12 0.5,0.5 0 0 0 15,11.5 0.5,0.5 0 0 0 14.5,11 Z"
     id="rect871"
     stroke-miterlimit="4"
     inkscape:connector-curvature="0"
     class="ColorScheme-Text"
     style="fill:currentColor" />
</svg>
