<?xml version="1.0" encoding="UTF-8" standalone="no"?>
<svg
   xmlns:dc="http://purl.org/dc/elements/1.1/"
   xmlns:cc="http://creativecommons.org/ns#"
   xmlns:rdf="http://www.w3.org/1999/02/22-rdf-syntax-ns#"
   xmlns:svg="http://www.w3.org/2000/svg"
   xmlns="http://www.w3.org/2000/svg"
   xmlns:sodipodi="http://sodipodi.sourceforge.net/DTD/sodipodi-0.dtd"
   xmlns:inkscape="http://www.inkscape.org/namespaces/inkscape"
   viewBox="0 0 22 22"
   id="svg6"
   version="1.1"
   sodipodi:docname="folder-development.svg"
   inkscape:version="0.92.5 (2060ec1f9f, 2020-04-08)">
  <metadata
     id="metadata8">
    <rdf:RDF>
      <cc:Work
         rdf:about="">
        <dc:format>image/svg+xml</dc:format>
        <dc:type
           rdf:resource="http://purl.org/dc/dcmitype/StillImage" />
        <dc:title></dc:title>
      </cc:Work>
    </rdf:RDF>
  </metadata>
  <sodipodi:namedview
     pagecolor="#ffffff"
     bordercolor="#666666"
     borderopacity="1"
     objecttolerance="10"
     gridtolerance="10"
     guidetolerance="10"
     inkscape:pageopacity="0"
     inkscape:pageshadow="2"
     inkscape:window-width="1085"
     inkscape:window-height="480"
     id="namedview6"
     showgrid="false"
     inkscape:zoom="10.727273"
     inkscape:cx="0.97881356"
     inkscape:cy="11"
     inkscape:window-x="0"
     inkscape:window-y="25"
     inkscape:window-maximized="0"
     inkscape:current-layer="svg6" />
  <defs
     id="defs3051">
    <style
       id="current-color-scheme"
       type="text/css">
      .ColorScheme-Text {
        color:#f9f9f9;
      }
    </style>
  </defs>
  <path
     d="M 10,2 V 5.09 A 6,6 0 0 0 7.527,6.113 L 5.344,3.93 3.93,5.344 6.115,7.529 A 6,6 0 0 0 5.085,10 H 2 v 2 h 3.09 a 6,6 0 0 0 1.023,2.473 L 3.93,16.656 5.344,18.07 7.529,15.885 A 6,6 0 0 0 10,16.915 V 20 h 2 v -3.09 a 6,6 0 0 0 2.473,-1.023 l 2.183,2.183 1.414,-1.414 -2.185,-2.185 A 6,6 0 0 0 16.915,12 H 20 V 10 H 16.91 A 6,6 0 0 0 15.887,7.527 L 18.07,5.344 16.656,3.93 14.471,6.115 A 6,6 0 0 0 12,5.085 V 2 Z m 1,5 a 4,4 0 0 1 4,4 4,4 0 0 1 -4,4 4,4 0 0 1 -4,-4 4,4 0 0 1 4,-4 z"
     id="path1116"
     stroke-miterlimit="4"
     inkscape:connector-curvature="0"
     class="ColorScheme-Text"
     style="fill:currentColor" />
</svg>
