<?xml version="1.0" encoding="UTF-8" standalone="no"?>
<svg
   xmlns:dc="http://purl.org/dc/elements/1.1/"
   xmlns:cc="http://creativecommons.org/ns#"
   xmlns:rdf="http://www.w3.org/1999/02/22-rdf-syntax-ns#"
   xmlns:svg="http://www.w3.org/2000/svg"
   xmlns="http://www.w3.org/2000/svg"
   xmlns:sodipodi="http://sodipodi.sourceforge.net/DTD/sodipodi-0.dtd"
   xmlns:inkscape="http://www.inkscape.org/namespaces/inkscape"
   viewBox="0 0 22 22"
   id="svg6"
   version="1.1"
   sodipodi:docname="folder-move.svg"
   inkscape:version="0.92.5 (2060ec1f9f, 2020-04-08)">
  <metadata
     id="metadata8">
    <rdf:RDF>
      <cc:Work
         rdf:about="">
        <dc:format>image/svg+xml</dc:format>
        <dc:type
           rdf:resource="http://purl.org/dc/dcmitype/StillImage" />
        <dc:title></dc:title>
      </cc:Work>
    </rdf:RDF>
  </metadata>
  <sodipodi:namedview
     pagecolor="#ffffff"
     bordercolor="#666666"
     borderopacity="1"
     objecttolerance="10"
     gridtolerance="10"
     guidetolerance="10"
     inkscape:pageopacity="0"
     inkscape:pageshadow="2"
     inkscape:window-width="1085"
     inkscape:window-height="480"
     id="namedview6"
     showgrid="false"
     inkscape:zoom="10.727273"
     inkscape:cx="0.97881356"
     inkscape:cy="11"
     inkscape:window-x="0"
     inkscape:window-y="25"
     inkscape:window-maximized="0"
     inkscape:current-layer="svg6" />
  <defs
     id="defs3051">
    <style
       id="current-color-scheme"
       type="text/css">
      .ColorScheme-Text {
        color:#f9f9f9;
      }
    </style>
  </defs>
  <path
     d="M 7,3 V 5 H 8 V 4 H 9 V 3 Z m 3,0 v 1 h 3 V 3 Z m 4,0 v 1 h 1 v 1 h 1 V 3 Z M 2,6 V 8 H 3 V 7 H 4 V 6 Z M 6,6 V 7 H 8 V 6 Z m 9,0 v 1 h -4 v 3 H 6 v 4 H 5 v 1 h 1 v 4 H 20 V 7 H 16 V 6 Z m -3,2 h 7 V 18 H 7 v -7 h 5 z M 2,9 v 3 H 3 V 9 Z m 0,4 v 2 H 4 V 14 H 3 v -1 z"
     id="path1082"
     stroke-miterlimit="4"
     inkscape:connector-curvature="0"
     class="ColorScheme-Text"
     style="fill:currentColor" />
</svg>
