<?xml version="1.0" encoding="UTF-8" standalone="no"?>
<svg
   xmlns:dc="http://purl.org/dc/elements/1.1/"
   xmlns:cc="http://creativecommons.org/ns#"
   xmlns:rdf="http://www.w3.org/1999/02/22-rdf-syntax-ns#"
   xmlns:svg="http://www.w3.org/2000/svg"
   xmlns="http://www.w3.org/2000/svg"
   xmlns:sodipodi="http://sodipodi.sourceforge.net/DTD/sodipodi-0.dtd"
   xmlns:inkscape="http://www.inkscape.org/namespaces/inkscape"
   width="24"
   height="24"
   version="1.1"
   id="svg8"
   sodipodi:docname="plasmavault.svg"
   inkscape:version="0.92.5 (2060ec1f9f, 2020-04-08)">
  <defs
     id="defs12" />
    <style
       id="current-color-scheme"
       type="text/css">
      .ColorScheme-Highlight {
        color:#ebebeb;
      }
    </style>
  <path
     d="M 4,3 C 3.446,3 3,3.446 3,4 v 16 c 0,0.554 0.446,1 1,1 h 16 c 0.554,0 1,-0.446 1,-1 V 7 C 21,6.446 20.554,6 20,6 H 13 L 10,3 Z"
     id="path821"
     stroke-miterlimit="4"
     inkscape:connector-curvature="0"
     class="ColorScheme-Highlight"
     style="fill:currentColor" />
  <path
     d="m 15,8 a 3,3 0 0 0 -3,3 v 1 h -1 v 7 h 8 V 12 H 18 V 11 A 3,3 0 0 0 15,8 Z m 0,1 a 2,2 0 0 1 2,2 v 1 h -4 v -1 a 2,2 0 0 1 2,-2 z m -1,5 h 2 v 2 h -2 z"
     id="rect824"
     stroke-miterlimit="4"
     inkscape:connector-curvature="0"
     style="opacity:0.5" />
</svg>
