<?xml version="1.0" encoding="UTF-8" standalone="no"?>
<svg
   xmlns:dc="http://purl.org/dc/elements/1.1/"
   xmlns:cc="http://creativecommons.org/ns#"
   xmlns:rdf="http://www.w3.org/1999/02/22-rdf-syntax-ns#"
   xmlns:svg="http://www.w3.org/2000/svg"
   xmlns="http://www.w3.org/2000/svg"
   xmlns:sodipodi="http://sodipodi.sourceforge.net/DTD/sodipodi-0.dtd"
   xmlns:inkscape="http://www.inkscape.org/namespaces/inkscape"
   viewBox="0 0 16 16"
   id="svg6"
   version="1.1"
   sodipodi:docname="folder-games-symbolic.svg"
   inkscape:version="0.92.5 (2060ec1f9f, 2020-04-08)">
  <metadata
     id="metadata8">
    <rdf:RDF>
      <cc:Work
         rdf:about="">
        <dc:format>image/svg+xml</dc:format>
        <dc:type
           rdf:resource="http://purl.org/dc/dcmitype/StillImage" />
        <dc:title></dc:title>
      </cc:Work>
    </rdf:RDF>
  </metadata>
  <sodipodi:namedview
     pagecolor="#ffffff"
     bordercolor="#666666"
     borderopacity="1"
     objecttolerance="10"
     gridtolerance="10"
     guidetolerance="10"
     inkscape:pageopacity="0"
     inkscape:pageshadow="2"
     inkscape:window-width="1085"
     inkscape:window-height="480"
     id="namedview6"
     showgrid="false"
     inkscape:zoom="14.75"
     inkscape:cx="8"
     inkscape:cy="8"
     inkscape:window-x="0"
     inkscape:window-y="25"
     inkscape:window-maximized="0"
     inkscape:current-layer="svg6" />
  <defs
     id="defs3051">
    <style
       id="current-color-scheme"
       type="text/css">
      .ColorScheme-Text {
        color:#f9f9f9;
      }
    </style>
  </defs>
  <path
     d="M 2.031,2 A 0.03,0.03 0 0 0 2,2.031 V 13.97 a 0.03,0.03 0 0 0 0.031,0.031 H 4.97 A 0.03,0.03 0 0 0 5,13.969 0.03,0.03 0 0 0 5.031,14 H 5.969 A 0.03,0.03 0 0 0 6,13.969 V 11 h 4 v 2.969 A 0.03,0.03 0 0 0 10.031,14 h 0.938 A 0.03,0.03 0 0 0 11,13.969 0.03,0.03 0 0 0 11.031,14 h 2.938 A 0.03,0.03 0 0 0 14,13.969 V 2.03 A 0.03,0.03 0 0 0 13.969,2 H 10.03 A 0.03,0.03 0 0 0 9.999,2.031 V 2.969 A 0.03,0.03 0 0 0 10.03,3 H 5.97 A 0.03,0.03 0 0 0 6,2.969 V 2.03 A 0.03,0.03 0 0 0 5.969,2 H 2.03 Z M 3,3 H 5.031 A 0.03,0.03 0 0 0 5,3.031 V 3.969 A 0.03,0.03 0 0 0 5.031,4 h 5.938 A 0.03,0.03 0 0 0 11,3.969 V 3.03 A 0.03,0.03 0 0 0 10.969,3 H 13 V 13 H 11.031 A 0.03,0.03 0 0 0 11,13.031 v -3 A 0.03,0.03 0 0 0 10.969,10 H 5.03 a 0.03,0.03 0 0 0 -0.031,0.031 v 3 A 0.03,0.03 0 0 0 4.969,13 H 3 Z M 5.031,5 A 0.03,0.03 0 0 0 5,5.031 V 6 H 4.031 A 0.03,0.03 0 0 0 4,6.031 V 6.969 A 0.03,0.03 0 0 0 4.031,7 H 5 V 7.969 A 0.03,0.03 0 0 0 5.031,8 H 5.969 A 0.03,0.03 0 0 0 6,7.969 V 7 H 6.969 A 0.03,0.03 0 0 0 7,6.969 V 6.03 A 0.03,0.03 0 0 0 6.969,6 H 6 V 5.031 A 0.03,0.03 0 0 0 5.969,5 H 5.03 Z M 10.5,5 A 0.5,0.5 0 0 0 10,5.5 0.5,0.5 0 0 0 10.5,6 0.5,0.5 0 0 0 11,5.5 0.5,0.5 0 0 0 10.5,5 Z m -1,1 A 0.5,0.5 0 0 0 9,6.5 0.5,0.5 0 0 0 9.5,7 0.5,0.5 0 0 0 10,6.5 0.5,0.5 0 0 0 9.5,6 Z m 2,0 A 0.5,0.5 0 0 0 11,6.5 0.5,0.5 0 0 0 11.5,7 0.5,0.5 0 0 0 12,6.5 0.5,0.5 0 0 0 11.5,6 Z m -1,1 A 0.5,0.5 0 0 0 10,7.5 0.5,0.5 0 0 0 10.5,8 0.5,0.5 0 0 0 11,7.5 0.5,0.5 0 0 0 10.5,7 Z"
     id="rect820"
     stroke-miterlimit="4"
     inkscape:connector-curvature="0"
     class="ColorScheme-Text"
     style="fill:currentColor" />
</svg>
