<?xml version="1.0" encoding="UTF-8" standalone="no"?>
<svg
   xmlns:dc="http://purl.org/dc/elements/1.1/"
   xmlns:cc="http://creativecommons.org/ns#"
   xmlns:rdf="http://www.w3.org/1999/02/22-rdf-syntax-ns#"
   xmlns:svg="http://www.w3.org/2000/svg"
   xmlns="http://www.w3.org/2000/svg"
   xmlns:sodipodi="http://sodipodi.sourceforge.net/DTD/sodipodi-0.dtd"
   xmlns:inkscape="http://www.inkscape.org/namespaces/inkscape"
   width="64"
   height="64"
   version="1.1"
   id="svg14"
   sodipodi:docname="folder-publicshare.svg"
   inkscape:version="0.92.5 (2060ec1f9f, 2020-04-08)">
  <metadata
     id="metadata20">
    <rdf:RDF>
      <cc:Work
         rdf:about="">
        <dc:format>image/svg+xml</dc:format>
        <dc:type
           rdf:resource="http://purl.org/dc/dcmitype/StillImage" />
        <dc:title></dc:title>
      </cc:Work>
    </rdf:RDF>
  </metadata>
  <defs
     id="defs18" />
  <style
     id="current-color-scheme"
     type="text/css">
      .ColorScheme-Highlight {
        color:#ebebeb;
      }
    </style>
  <path
     d="M 25,9 H 10 C 7.23,9 5,11.23 5,14 v 20 c 0,2.77 2.23,5 5,5 h 45 c 2.77,0 5,-2.23 5,-5 V 19 A 5.005,5.005 0 0 0 58.54,15.46 4.989,4.989 0 0 0 55,14 H 30 Z"
     id="path2"
     inkscape:connector-curvature="0"
     class="ColorScheme-Highlight"
     style="fill:currentColor" />
  <path
     d="M 25,9 H 10 C 7.23,9 5,11.23 5,14 v 20 c 0,2.77 2.23,5 5,5 h 45 c 2.77,0 5,-2.23 5,-5 V 19 A 5.005,5.005 0 0 0 58.54,15.46 4.989,4.989 0 0 0 55,14 H 30 Z"
     id="path4"
     inkscape:connector-curvature="0"
     style="opacity:0.5" />
  <path
     d="m 35,19 -5,5 H 10 A 5.005,5.005 0 0 0 6.46,25.46 4.989,4.989 0 0 0 5,29 v 30 h 50 c 2.77,0 5,-2.23 5,-5 V 24 c 0,-2.77 -2.23,-5 -5,-5 z"
     id="path6"
     inkscape:connector-curvature="0"
     class="ColorScheme-Highlight"
     style="fill:currentColor" />
  <path
     style="opacity:0.2;fill:#ffffff"
     d="M 25 9 L 28 16 L 55 16 C 55.14602 15.999454 55.291994 16.005298 55.4375 16.017578 C 55.603251 16.032108 55.76817 16.054928 55.931641 16.085938 C 56.094917 16.116267 56.256576 16.154728 56.416016 16.201172 C 56.575553 16.247982 56.73265 16.302738 56.886719 16.365234 C 57.04119 16.427934 57.192422 16.498333 57.339844 16.576172 C 57.487219 16.653582 57.630628 16.738327 57.769531 16.830078 C 57.907814 16.921668 58.041444 17.020098 58.169922 17.125 C 58.298497 17.23075 58.421698 17.34287 58.539062 17.460938 C 58.639806 17.560958 58.736246 17.665219 58.828125 17.773438 C 58.934951 17.901163 59.035336 18.034142 59.128906 18.171875 C 59.223236 18.30999 59.310587 18.452748 59.390625 18.599609 C 59.470375 18.74629 59.542727 18.896869 59.607422 19.050781 C 59.672532 19.204714 59.729901 19.361812 59.779297 19.521484 C 59.828357 19.680793 59.869417 19.842452 59.902344 20.005859 C 59.935294 20.169234 59.960062 20.334153 59.976562 20.5 C 59.992713 20.666171 60.00053 20.833047 60 21 L 60 19 C 60.0013 17.67331 59.47585 16.400372 58.539062 15.460938 C 57.600621 14.522654 56.327038 13.996915 55 14 L 30 14 L 25 9 z "
     id="path842" />
  <path
     style="opacity:0.2"
     d="M 35 19 L 30 24 L 10 24 C 8.67331 23.998677 7.4003722 24.524151 6.4609375 25.460938 C 5.5226556 26.399376 4.9969146 27.672962 5 29 L 5 31 C 4.999454 30.85398 5.0053201 30.708006 5.0175781 30.5625 C 5.0321101 30.396749 5.0549255 30.23183 5.0859375 30.068359 C 5.1162635 29.905083 5.1547225 29.743424 5.2011719 29.583984 C 5.2479819 29.424447 5.3027378 29.26735 5.3652344 29.113281 C 5.4279324 28.95881 5.4983328 28.807579 5.5761719 28.660156 C 5.6536429 28.513445 5.7383832 28.370689 5.8300781 28.232422 C 5.9222491 28.09343 6.021332 27.959146 6.1269531 27.830078 C 6.2320692 27.70155 6.3435361 27.57835 6.4609375 27.460938 C 6.5616348 27.360816 6.6665475 27.265027 6.7753906 27.173828 C 6.9030723 27.066336 7.036051 26.965299 7.1738281 26.871094 C 7.3113082 26.776814 7.4534124 26.68947 7.5996094 26.609375 C 7.7462899 26.529625 7.8968689 26.457273 8.0507812 26.392578 C 8.2047508 26.328128 8.3618481 26.271412 8.5214844 26.222656 C 8.680793 26.173596 8.8424528 26.132536 9.0058594 26.099609 C 9.1692346 26.066658 9.3341533 26.041888 9.5 26.025391 C 9.6661387 26.008592 9.8330141 26.000117 10 26 L 31 26 L 35 19 z M 60 52 C 60 52.6925 59.859766 53.350625 59.607422 53.949219 C 59.355078 54.547812 58.990941 55.087187 58.539062 55.539062 C 58.087187 55.990938 57.547812 56.355078 56.949219 56.607422 C 56.350625 56.859766 55.6925 57 55 57 L 5 57 L 5 59 L 55 59 C 57.77 59 60 56.77 60 54 L 60 52 z "
     id="path825" />
  <path
     d="M 37.5,34 A 2.5,2.5 0 0 0 35,36.5 2.5,2.5 0 0 0 37.5,39 2.5,2.5 0 0 0 40,36.5 2.5,2.5 0 0 0 37.5,34 Z m 0,1 A 1.5,1.5 0 0 1 39,36.5 1.5,1.5 0 0 1 37.5,38 1.5,1.5 0 0 1 36,36.5 1.5,1.5 0 0 1 37.5,35 Z m -3.67,2.941 -4.33,2.5 0.5,0.866 4.33,-2.5 z M 26.5,39 A 2.5,2.5 0 0 0 24,41.5 2.5,2.5 0 0 0 26.5,44 2.5,2.5 0 0 0 29,41.5 2.5,2.5 0 0 0 26.5,39 Z m 0,1 A 1.5,1.5 0 0 1 28,41.5 1.5,1.5 0 0 1 26.5,43 1.5,1.5 0 0 1 25,41.5 1.5,1.5 0 0 1 26.5,40 Z m 3.5,2.852 -0.5,0.867 4.33,2.5 0.5,-0.867 z M 37.5,45 A 2.5,2.5 0 0 0 35,47.5 2.5,2.5 0 0 0 37.5,50 2.5,2.5 0 0 0 40,47.5 2.5,2.5 0 0 0 37.5,45 Z m 0,1 A 1.5,1.5 0 0 1 39,47.5 1.5,1.5 0 0 1 37.5,49 1.5,1.5 0 0 1 36,47.5 1.5,1.5 0 0 1 37.5,46 Z"
     id="path1291"
     inkscape:connector-curvature="0"
     style="opacity:0.50" />
</svg>
