<?xml version="1.0" encoding="UTF-8" standalone="no"?>
<svg
   xmlns:dc="http://purl.org/dc/elements/1.1/"
   xmlns:cc="http://creativecommons.org/ns#"
   xmlns:rdf="http://www.w3.org/1999/02/22-rdf-syntax-ns#"
   xmlns:svg="http://www.w3.org/2000/svg"
   xmlns="http://www.w3.org/2000/svg"
   xmlns:sodipodi="http://sodipodi.sourceforge.net/DTD/sodipodi-0.dtd"
   xmlns:inkscape="http://www.inkscape.org/namespaces/inkscape"
   width="64"
   height="64"
   version="1.1"
   id="svg12"
   sodipodi:docname="user-desktop.svg"
   inkscape:version="0.92.5 (2060ec1f9f, 2020-04-08)">
  <metadata
     id="metadata18">
    <rdf:RDF>
      <cc:Work
         rdf:about="">
        <dc:format>image/svg+xml</dc:format>
        <dc:type
           rdf:resource="http://purl.org/dc/dcmitype/StillImage" />
        <dc:title></dc:title>
      </cc:Work>
    </rdf:RDF>
  </metadata>
  <defs
     id="defs16" />
    <style
       id="current-color-scheme"
       type="text/css">
      .ColorScheme-Highlight {
        color:#ebebeb;
      }
    </style>
  <rect
     width="55.131001"
     height="50.262001"
     x="5"
     y="9"
     ry="5"
     rx="5.131"
     id="rect2"
     class="ColorScheme-Highlight"
     style="fill:currentColor" />
  <path
     d="M 54.5,14 H 5 v 40.262 c 0,1.34 0.554,2.541 1.43,3.437 z"
     id="path4"
     inkscape:connector-curvature="0"
     style="opacity:0.25;fill:#ffffff" />
  <path
     d="M 10.13,9 C 7.289,9 5,11.23 5,14 H 60.13 C 60.13,11.23 57.843,9 55,9 Z M 10,19 v 5 h 5 v -5 z m 0,10 v 5 h 5 v -5 z m 0,10 v 5 h 5 v -5 z m 10,15 v 5 h 25 v -5 z"
     id="path6"
     inkscape:connector-curvature="0"
     style="opacity:0.5" />
  <path
     d="M 10.13,9 C 7.289,9 5,11.23 5,14 v 2 A 4.9,4.9 0 0 1 5.402,14.05 4.987,4.987 0 0 1 6.5,12.46 5.127,5.127 0 0 1 8.13,11.393 5.25,5.25 0 0 1 10.13,11 H 55 c 0.71,0 1.386,0.14 2,0.393 A 5.127,5.127 0 0 1 58.63,12.461 4.905,4.905 0 0 1 60.131,16 V 14 C 60.131,11.23 57.843,9 55,9 Z"
     id="path8"
     inkscape:connector-curvature="0"
     style="opacity:0.15;fill:#ffffff" />
  <path
     d="m 60.13,52.262 c 0,0.692 -0.143,1.35 -0.401,1.949 A 4.987,4.987 0 0 1 58.631,55.801 5.132,5.132 0 0 1 57,56.87 5.25,5.25 0 0 1 55,57.26 H 10.13 A 5.25,5.25 0 0 1 8.13,56.87 5.132,5.132 0 0 1 6.5,55.8 4.987,4.987 0 0 1 5.402,54.21 4.894,4.894 0 0 1 5,52.26 v 2 c 0,2.77 2.288,5 5.13,5 H 55 c 2.843,0 5.13,-2.23 5.13,-5 z"
     id="path10"
     inkscape:connector-curvature="0"
     style="opacity:0.15" />
</svg>
