<?xml version="1.0" encoding="UTF-8" standalone="no"?>
<svg
   xmlns:dc="http://purl.org/dc/elements/1.1/"
   xmlns:cc="http://creativecommons.org/ns#"
   xmlns:rdf="http://www.w3.org/1999/02/22-rdf-syntax-ns#"
   xmlns:svg="http://www.w3.org/2000/svg"
   xmlns="http://www.w3.org/2000/svg"
   xmlns:sodipodi="http://sodipodi.sourceforge.net/DTD/sodipodi-0.dtd"
   xmlns:inkscape="http://www.inkscape.org/namespaces/inkscape"
   viewBox="0 0 24 24"
   id="svg6"
   version="1.1"
   sodipodi:docname="folder-templates.svg"
   inkscape:version="0.92.5 (2060ec1f9f, 2020-04-08)">
  <metadata
     id="metadata8">
    <rdf:RDF>
      <cc:Work
         rdf:about="">
        <dc:format>image/svg+xml</dc:format>
        <dc:type
           rdf:resource="http://purl.org/dc/dcmitype/StillImage" />
        <dc:title></dc:title>
      </cc:Work>
    </rdf:RDF>
  </metadata>
  <sodipodi:namedview
     pagecolor="#ffffff"
     bordercolor="#666666"
     borderopacity="1"
     objecttolerance="10"
     gridtolerance="10"
     guidetolerance="10"
     inkscape:pageopacity="0"
     inkscape:pageshadow="2"
     inkscape:window-width="1366"
     inkscape:window-height="711"
     id="namedview6"
     showgrid="false"
     inkscape:zoom="19.416667"
     inkscape:cx="12"
     inkscape:cy="12"
     inkscape:window-x="0"
     inkscape:window-y="25"
     inkscape:window-maximized="1"
     inkscape:current-layer="svg6" />
  <defs
     id="defs3051">
    <style
       id="current-color-scheme"
       type="text/css">
      .ColorScheme-Text {
        color:#f9f9f9;
      }
    </style>
  </defs>
  <path
     d="M 5,4 V 6 H 6 V 5 H 7 V 4 Z m 3,0 v 1 h 2 V 4 Z m 3,0 v 1 h 2 V 4 Z m 3,0 v 1 h 2 V 4 Z m 3,0 v 1 h 1 v 1 h 1 V 4 Z M 5,7 V 9 H 6 V 7 Z m 13,0 v 2 h 1 V 7 Z M 5,10 v 4 h 1 v -4 z m 13,0 v 3 h -6 v 5 h 1 v -4 h 5 v 0.586 L 13.586,19 H 11 v 1 h 3 l 5,-5 V 10 Z M 5,15 v 2 h 1 v -2 z m 0,3 v 2 H 7 V 19 H 6 v -1 z m 3,1 v 1 h 2 v -1 z"
     id="path958"
     stroke-miterlimit="4"
     inkscape:connector-curvature="0"
     class="ColorScheme-Text"
     style="fill:currentColor" />
</svg>
