<?xml version="1.0" encoding="UTF-8" standalone="no"?>
<svg
   xmlns:dc="http://purl.org/dc/elements/1.1/"
   xmlns:cc="http://creativecommons.org/ns#"
   xmlns:rdf="http://www.w3.org/1999/02/22-rdf-syntax-ns#"
   xmlns:svg="http://www.w3.org/2000/svg"
   xmlns="http://www.w3.org/2000/svg"
   xmlns:sodipodi="http://sodipodi.sourceforge.net/DTD/sodipodi-0.dtd"
   xmlns:inkscape="http://www.inkscape.org/namespaces/inkscape"
   viewBox="0 0 24 24"
   id="svg6"
   version="1.1"
   sodipodi:docname="folder-games.svg"
   inkscape:version="0.92.5 (2060ec1f9f, 2020-04-08)">
  <metadata
     id="metadata8">
    <rdf:RDF>
      <cc:Work
         rdf:about="">
        <dc:format>image/svg+xml</dc:format>
        <dc:type
           rdf:resource="http://purl.org/dc/dcmitype/StillImage" />
        <dc:title></dc:title>
      </cc:Work>
    </rdf:RDF>
  </metadata>
  <sodipodi:namedview
     pagecolor="#ffffff"
     bordercolor="#666666"
     borderopacity="1"
     objecttolerance="10"
     gridtolerance="10"
     guidetolerance="10"
     inkscape:pageopacity="0"
     inkscape:pageshadow="2"
     inkscape:window-width="1366"
     inkscape:window-height="711"
     id="namedview6"
     showgrid="false"
     inkscape:zoom="19.416667"
     inkscape:cx="12"
     inkscape:cy="12"
     inkscape:window-x="0"
     inkscape:window-y="25"
     inkscape:window-maximized="1"
     inkscape:current-layer="svg6" />
  <defs
     id="defs3051">
    <style
       id="current-color-scheme"
       type="text/css">
      .ColorScheme-Text {
        color:#f9f9f9;
      }
    </style>
  </defs>
  <path
     d="m 4,4 v 16 h 5 v -4 h 6 v 4 h 5 V 4 H 14 V 6 H 10 V 4 Z m 1,1 h 4 v 2 h 6 V 5 h 4 V 19 H 16 V 15 H 8 v 4 H 5 Z m 3,3 v 2 H 6 v 1 h 2 v 2 h 1 v -2 h 2 V 10 H 9 V 8 Z m 7.5,0 A 0.5,0.5 0 0 0 15,8.5 0.5,0.5 0 0 0 15.5,9 0.5,0.5 0 0 0 16,8.5 0.5,0.5 0 0 0 15.5,8 Z m -2,2 A 0.5,0.5 0 0 0 13,10.5 0.5,0.5 0 0 0 13.5,11 0.5,0.5 0 0 0 14,10.5 0.5,0.5 0 0 0 13.5,10 Z m 4,0 A 0.5,0.5 0 0 0 17,10.5 0.5,0.5 0 0 0 17.5,11 0.5,0.5 0 0 0 18,10.5 0.5,0.5 0 0 0 17.5,10 Z m -2,2 A 0.5,0.5 0 0 0 15,12.5 0.5,0.5 0 0 0 15.5,13 0.5,0.5 0 0 0 16,12.5 0.5,0.5 0 0 0 15.5,12 Z"
     id="rect871"
     stroke-miterlimit="4"
     inkscape:connector-curvature="0"
     class="ColorScheme-Text"
     style="fill:currentColor" />
</svg>
