<?xml version="1.0" encoding="UTF-8" standalone="no"?>
<svg
   xmlns:dc="http://purl.org/dc/elements/1.1/"
   xmlns:cc="http://creativecommons.org/ns#"
   xmlns:rdf="http://www.w3.org/1999/02/22-rdf-syntax-ns#"
   xmlns:svg="http://www.w3.org/2000/svg"
   xmlns="http://www.w3.org/2000/svg"
   xmlns:sodipodi="http://sodipodi.sourceforge.net/DTD/sodipodi-0.dtd"
   xmlns:inkscape="http://www.inkscape.org/namespaces/inkscape"
   viewBox="0 0 24 24"
   id="svg6"
   version="1.1"
   sodipodi:docname="folder-publicshare.svg"
   inkscape:version="0.92.5 (2060ec1f9f, 2020-04-08)">
  <metadata
     id="metadata8">
    <rdf:RDF>
      <cc:Work
         rdf:about="">
        <dc:format>image/svg+xml</dc:format>
        <dc:type
           rdf:resource="http://purl.org/dc/dcmitype/StillImage" />
        <dc:title></dc:title>
      </cc:Work>
    </rdf:RDF>
  </metadata>
  <sodipodi:namedview
     pagecolor="#ffffff"
     bordercolor="#666666"
     borderopacity="1"
     objecttolerance="10"
     gridtolerance="10"
     guidetolerance="10"
     inkscape:pageopacity="0"
     inkscape:pageshadow="2"
     inkscape:window-width="1366"
     inkscape:window-height="711"
     id="namedview6"
     showgrid="true"
     inkscape:zoom="19.416667"
     inkscape:cx="12"
     inkscape:cy="12"
     inkscape:window-x="0"
     inkscape:window-y="25"
     inkscape:window-maximized="1"
     inkscape:current-layer="svg6" />
  <defs
     id="defs3051">
    <style
       id="current-color-scheme"
       type="text/css">
      .ColorScheme-Text {
        color:#f9f9f9;
      }
    </style>
  </defs>
  <path
     d="M 17.5,4 A 2.5,2.5 0 0 0 15,6.5 2.5,2.5 0 0 0 17.5,9 2.5,2.5 0 0 0 20,6.5 2.5,2.5 0 0 0 17.5,4 Z m 0,1 A 1.5,1.5 0 0 1 19,6.5 1.5,1.5 0 0 1 17.5,8 1.5,1.5 0 0 1 16,6.5 1.5,1.5 0 0 1 17.5,5 Z m -3.67,2.941 -4.33,2.5 0.5,0.866 4.33,-2.5 z M 6.5,9 A 2.5,2.5 0 0 0 4,11.5 2.5,2.5 0 0 0 6.5,14 2.5,2.5 0 0 0 9,11.5 2.5,2.5 0 0 0 6.5,9 Z m 0,1 A 1.5,1.5 0 0 1 8,11.5 1.5,1.5 0 0 1 6.5,13 1.5,1.5 0 0 1 5,11.5 1.5,1.5 0 0 1 6.5,10 Z m 3.5,2.852 -0.5,0.867 4.33,2.5 0.5,-0.867 z M 17.5,15 A 2.5,2.5 0 0 0 15,17.5 2.5,2.5 0 0 0 17.5,20 2.5,2.5 0 0 0 20,17.5 2.5,2.5 0 0 0 17.5,15 Z m 0,1 A 1.5,1.5 0 0 1 19,17.5 1.5,1.5 0 0 1 17.5,19 1.5,1.5 0 0 1 16,17.5 1.5,1.5 0 0 1 17.5,16 Z"
     id="path1291"
     stroke-miterlimit="4"
     inkscape:connector-curvature="0"
     class="ColorScheme-Text"
     style="fill:currentColor" />
</svg>
