<?xml version="1.0" encoding="UTF-8" standalone="no"?>
<svg
   xmlns:dc="http://purl.org/dc/elements/1.1/"
   xmlns:cc="http://creativecommons.org/ns#"
   xmlns:rdf="http://www.w3.org/1999/02/22-rdf-syntax-ns#"
   xmlns:svg="http://www.w3.org/2000/svg"
   xmlns="http://www.w3.org/2000/svg"
   xmlns:sodipodi="http://sodipodi.sourceforge.net/DTD/sodipodi-0.dtd"
   xmlns:inkscape="http://www.inkscape.org/namespaces/inkscape"
   width="24"
   height="24"
   version="1.1"
   id="svg6"
   sodipodi:docname="network-wireless-secure-signal-ok.svg"
   inkscape:version="0.92.5 (2060ec1f9f, 2020-04-08)">
  <metadata
     id="metadata12">
    <rdf:RDF>
      <cc:Work
         rdf:about="">
        <dc:format>image/svg+xml</dc:format>
        <dc:type
           rdf:resource="http://purl.org/dc/dcmitype/StillImage" />
        <dc:title></dc:title>
      </cc:Work>
    </rdf:RDF>
  </metadata>
  <defs
     id="defs10" />
    <style
       id="current-color-scheme"
       type="text/css">
      .ColorScheme-Text {
        color:#f9f9f9;
      }
    </style>
  <sodipodi:namedview
     pagecolor="#ffffff"
     bordercolor="#666666"
     borderopacity="1"
     objecttolerance="10"
     gridtolerance="10"
     guidetolerance="10"
     inkscape:pageopacity="0"
     inkscape:pageshadow="2"
     inkscape:window-width="1085"
     inkscape:window-height="480"
     id="namedview8"
     showgrid="false"
     inkscape:zoom="9.8333333"
     inkscape:cx="1.0677966"
     inkscape:cy="12"
     inkscape:window-x="0"
     inkscape:window-y="25"
     inkscape:window-maximized="0"
     inkscape:current-layer="svg6" />
  <path
     d="M 12,3.273 A 16.313,16.313 0 0 0 0.418,8.055 L 1.191,8.826 A 15.224,15.224 0 0 1 12,4.363 c 4.23,0 8.048,1.703 10.809,4.463 L 23.582,8.055 A 16.313,16.313 0 0 0 12,3.273 Z m 0,4.364 a 11.962,11.962 0 0 0 -8.492,3.506 l 0.77,0.771 A 10.876,10.876 0 0 1 12,8.727 c 3.022,0 5.75,1.215 7.723,3.187 l 0.77,-0.771 A 11.962,11.962 0 0 0 12,7.637 Z"
     id="path2"
     inkscape:connector-curvature="0"
     class="ColorScheme-Text"
     style="fill:currentColor;fill-opacity:0.30199998" />
  <path
     d="m 12,12 c -2.115,0 -4.025,0.85 -5.406,2.23 l 0.773,0.774 A 6.524,6.524 0 0 1 12,13.092 c 1.813,0 3.45,0.729 4.633,1.912 L 17.406,14.23 A 7.614,7.614 0 0 0 12,12 Z m 8,2 a 2,2 0 0 0 -2,2 v 2 h -1 v 4 h 6 v -4 h -1 v -2 a 2,2 0 0 0 -2,-2 z m 0,1 a 1,1 0 0 1 1,1 v 2 h -2 v -2 a 1,1 0 0 1 1,-1 z m -8,1.363 a 2.177,2.177 0 0 0 -2.182,2.182 c 0,1.21 0.973,2.182 2.182,2.182 A 2.177,2.177 0 0 0 14.182,18.545 2.177,2.177 0 0 0 12,16.363 Z m 0,1.09 c 0.604,0 1.09,0.488 1.09,1.092 0,0.605 -0.486,1.092 -1.09,1.092 -0.604,0 -1.09,-0.486 -1.09,-1.09 0,-0.605 0.486,-1.092 1.09,-1.092 z"
     id="path4"
     inkscape:connector-curvature="0"
     class="ColorScheme-Text"
     style="fill:currentColor" />
</svg>
