<?xml version="1.0" encoding="UTF-8" standalone="no"?>
<svg
   xmlns:dc="http://purl.org/dc/elements/1.1/"
   xmlns:cc="http://creativecommons.org/ns#"
   xmlns:rdf="http://www.w3.org/1999/02/22-rdf-syntax-ns#"
   xmlns:svg="http://www.w3.org/2000/svg"
   xmlns="http://www.w3.org/2000/svg"
   xmlns:sodipodi="http://sodipodi.sourceforge.net/DTD/sodipodi-0.dtd"
   xmlns:inkscape="http://www.inkscape.org/namespaces/inkscape"
   viewBox="0 0 16 16"
   id="svg6"
   version="1.1"
   sodipodi:docname="folder-development.svg"
   inkscape:version="0.92.5 (2060ec1f9f, 2020-04-08)">
  <metadata
     id="metadata8">
    <rdf:RDF>
      <cc:Work
         rdf:about="">
        <dc:format>image/svg+xml</dc:format>
        <dc:type
           rdf:resource="http://purl.org/dc/dcmitype/StillImage" />
        <dc:title></dc:title>
      </cc:Work>
    </rdf:RDF>
  </metadata>
  <sodipodi:namedview
     pagecolor="#ffffff"
     bordercolor="#666666"
     borderopacity="1"
     objecttolerance="10"
     gridtolerance="10"
     guidetolerance="10"
     inkscape:pageopacity="0"
     inkscape:pageshadow="2"
     inkscape:window-width="1085"
     inkscape:window-height="480"
     id="namedview6"
     showgrid="false"
     inkscape:zoom="14.75"
     inkscape:cx="0.71186441"
     inkscape:cy="8"
     inkscape:window-x="0"
     inkscape:window-y="25"
     inkscape:window-maximized="0"
     inkscape:current-layer="svg6" />
  <defs
     id="defs3051">
    <style
       id="current-color-scheme"
       type="text/css">
      .ColorScheme-Text {
        color:#f9f9f9;
      }
    </style>
  </defs>
  <path
     d="M 7,2 V 4.133 A 4,4 0 0 0 6.975,4.141 4,4 0 0 0 6.725,4.219 4,4 0 0 0 6.602,4.259 4,4 0 0 0 6.357,4.363 4,4 0 0 0 6.23,4.42 4,4 0 0 0 5.97,4.557 L 4.466,3.05 3.05,4.465 4.558,5.973 A 4,4 0 0 0 4.55,5.986 4,4 0 0 0 4.407,6.26 4,4 0 0 0 4.367,6.338 4,4 0 0 0 4.243,6.646 4,4 0 0 0 4.222,6.707 4,4 0 0 0 4.13,7 H 2 v 2 h 2.133 a 4,4 0 0 0 0.008,0.025 4,4 0 0 0 0.078,0.25 4,4 0 0 0 0.04,0.123 4,4 0 0 0 0.104,0.245 4,4 0 0 0 0.057,0.127 4,4 0 0 0 0.137,0.26 L 3.05,11.534 4.464,12.948 5.972,11.44 a 4,4 0 0 0 0.013,0.008 4,4 0 0 0 0.274,0.143 4,4 0 0 0 0.078,0.04 4,4 0 0 0 0.308,0.124 4,4 0 0 0 0.061,0.021 A 4,4 0 0 0 7,11.87 V 14 h 2 v -2.133 a 4,4 0 0 0 0.025,-0.008 4,4 0 0 0 0.25,-0.078 4,4 0 0 0 0.123,-0.04 4,4 0 0 0 0.245,-0.104 4,4 0 0 0 0.127,-0.057 4,4 0 0 0 0.26,-0.137 l 1.505,1.506 1.414,-1.414 -1.508,-1.508 A 4,4 0 0 0 11.449,10.014 4,4 0 0 0 11.592,9.74 4,4 0 0 0 11.627,9.674 4,4 0 0 0 11.633,9.662 4,4 0 0 0 11.756,9.354 4,4 0 0 0 11.776,9.303 4,4 0 0 0 11.777,9.293 4,4 0 0 0 11.87,9 H 14 V 7 H 11.867 A 4,4 0 0 0 11.859,6.975 4,4 0 0 0 11.781,6.725 4,4 0 0 0 11.741,6.602 4,4 0 0 0 11.637,6.357 4,4 0 0 0 11.58,6.23 4,4 0 0 0 11.443,5.97 L 12.949,4.465 11.535,3.051 10.027,4.559 A 4,4 0 0 0 10.014,4.551 4,4 0 0 0 9.74,4.408 4,4 0 0 0 9.674,4.373 4,4 0 0 0 9.662,4.367 4,4 0 0 0 9.354,4.244 4,4 0 0 0 9.303,4.224 4,4 0 0 0 9.293,4.223 4,4 0 0 0 9,4.13 V 2 Z m 1.014,4 a 2,2 0 0 1 0.088,0.006 2,2 0 0 1 0.12,0.008 2,2 0 0 1 0.007,0 2,2 0 0 1 0.044,0.007 2,2 0 0 1 0.135,0.022 2,2 0 0 1 0.156,0.039 2,2 0 0 1 0.028,0.008 2,2 0 0 1 0.004,0.002 2,2 0 0 1 0.11,0.039 2,2 0 0 1 0.095,0.037 2,2 0 0 1 0.004,0.002 2,2 0 0 1 0.02,0.01 2,2 0 0 1 0.157,0.08 2,2 0 0 1 0.002,0 2,2 0 0 1 0.145,0.09 2,2 0 0 1 0.008,0.005 2,2 0 0 1 0.078,0.06 2,2 0 0 1 0.092,0.073 2,2 0 0 1 0.004,0.002 2,2 0 0 1 0.11,0.106 2,2 0 0 1 0.081,0.088 2,2 0 0 1 0.047,0.05 2,2 0 0 1 0.006,0.01 2,2 0 0 1 0.088,0.12 2,2 0 0 1 0.023,0.03 2,2 0 0 1 0.004,0.006 2,2 0 0 1 0.059,0.098 2,2 0 0 1 0.048,0.086 2,2 0 0 1 0.006,0.01 2,2 0 0 1 0.022,0.047 2,2 0 0 1 0.058,0.132 2,2 0 0 1 0,0.002 2,2 0 0 1 0.006,0.018 2,2 0 0 1 0.055,0.158 2,2 0 0 1 0.03,0.133 2,2 0 0 1 0.01,0.047 2,2 0 0 1 0,0.008 A 2,2 0 0 1 9.982,7.754 2,2 0 0 1 9.992,7.85 2,2 0 0 1 9.994,7.86 2,2 0 0 1 10,8.014 2,2 0 0 1 9.994,8.102 2,2 0 0 1 9.986,8.222 2,2 0 0 1 9.986,8.229 2,2 0 0 1 9.979,8.273 2,2 0 0 1 9.957,8.408 2,2 0 0 1 9.918,8.564 2,2 0 0 1 9.91,8.592 2,2 0 0 1 9.908,8.596 2,2 0 0 1 9.869,8.706 2,2 0 0 1 9.832,8.801 2,2 0 0 1 9.83,8.805 2,2 0 0 1 9.82,8.825 2,2 0 0 1 9.74,8.982 2,2 0 0 1 9.74,8.984 2,2 0 0 1 9.65,9.129 2,2 0 0 1 9.645,9.137 2,2 0 0 1 9.585,9.215 2,2 0 0 1 9.512,9.307 2,2 0 0 1 9.51,9.311 2,2 0 0 1 9.404,9.421 2,2 0 0 1 9.316,9.502 2,2 0 0 1 9.266,9.549 2,2 0 0 1 9.256,9.555 2,2 0 0 1 9.136,9.643 2,2 0 0 1 9.106,9.666 2,2 0 0 1 9.1,9.67 2,2 0 0 1 9.002,9.729 2,2 0 0 1 8.916,9.777 2,2 0 0 1 8.906,9.783 2,2 0 0 1 8.859,9.805 2,2 0 0 1 8.727,9.863 2,2 0 0 1 8.725,9.863 2,2 0 0 1 8.707,9.869 2,2 0 0 1 8.549,9.924 2,2 0 0 1 8.416,9.954 2,2 0 0 1 8.369,9.964 2,2 0 0 1 8.361,9.964 2,2 0 0 1 8.246,9.982 2,2 0 0 1 8.15,9.992 2,2 0 0 1 8.14,9.994 2,2 0 0 1 7.986,10 2,2 0 0 1 7.898,9.994 2,2 0 0 1 7.778,9.986 2,2 0 0 1 7.771,9.986 2,2 0 0 1 7.727,9.979 2,2 0 0 1 7.592,9.957 2,2 0 0 1 7.436,9.918 2,2 0 0 1 7.404,9.908 2,2 0 0 1 7.294,9.869 2,2 0 0 1 7.199,9.832 2,2 0 0 1 7.176,9.82 2,2 0 0 1 7.018,9.74 2,2 0 0 1 7.016,9.74 2,2 0 0 1 6.871,9.65 2,2 0 0 1 6.863,9.645 2,2 0 0 1 6.785,9.585 2,2 0 0 1 6.693,9.512 2,2 0 0 1 6.586,9.414 2,2 0 0 1 6.578,9.404 2,2 0 0 1 6.498,9.316 2,2 0 0 1 6.445,9.256 2,2 0 0 1 6.357,9.136 2,2 0 0 1 6.334,9.106 2,2 0 0 1 6.33,9.1 2,2 0 0 1 6.271,9.002 2,2 0 0 1 6.223,8.916 2,2 0 0 1 6.195,8.859 2,2 0 0 1 6.137,8.727 2,2 0 0 1 6.131,8.707 2,2 0 0 1 6.076,8.549 2,2 0 0 1 6.046,8.416 2,2 0 0 1 6.036,8.361 2,2 0 0 1 6.018,8.246 2,2 0 0 1 6.008,8.15 2,2 0 0 1 6.006,8.14 2,2 0 0 1 6,7.987 2,2 0 0 1 6.006,7.899 2,2 0 0 1 6.014,7.779 2,2 0 0 1 6.021,7.728 2,2 0 0 1 6.043,7.593 2,2 0 0 1 6.082,7.437 2,2 0 0 1 6.092,7.405 2,2 0 0 1 6.131,7.295 2,2 0 0 1 6.168,7.2 2,2 0 0 1 6.18,7.177 2,2 0 0 1 6.26,7.019 2,2 0 0 1 6.271,6.997 2,2 0 0 1 6.355,6.864 2,2 0 0 1 6.415,6.786 2,2 0 0 1 6.488,6.694 2,2 0 0 1 6.586,6.587 2,2 0 0 1 6.596,6.579 2,2 0 0 1 6.684,6.499 2,2 0 0 1 6.744,6.446 2,2 0 0 1 6.864,6.358 2,2 0 0 1 6.9,6.33 2,2 0 0 1 6.998,6.271 2,2 0 0 1 7.084,6.223 2,2 0 0 1 7.141,6.195 2,2 0 0 1 7.273,6.137 a 2,2 0 0 1 0.002,0 2,2 0 0 1 0.018,-0.006 2,2 0 0 1 0.158,-0.055 2,2 0 0 1 0.133,-0.03 2,2 0 0 1 0.047,-0.01 2,2 0 0 1 0.008,0 A 2,2 0 0 1 7.754,6.018 2,2 0 0 1 7.85,6.008 2,2 0 0 1 7.86,6.006 2,2 0 0 1 8.013,6 Z"
     id="path814"
     stroke-miterlimit="4"
     inkscape:connector-curvature="0"
     class="ColorScheme-Text"
     style="fill:currentColor" />
</svg>
