<?xml version="1.0" encoding="UTF-8" standalone="no"?>
<svg
   xmlns:dc="http://purl.org/dc/elements/1.1/"
   xmlns:cc="http://creativecommons.org/ns#"
   xmlns:rdf="http://www.w3.org/1999/02/22-rdf-syntax-ns#"
   xmlns:svg="http://www.w3.org/2000/svg"
   xmlns="http://www.w3.org/2000/svg"
   xmlns:sodipodi="http://sodipodi.sourceforge.net/DTD/sodipodi-0.dtd"
   xmlns:inkscape="http://www.inkscape.org/namespaces/inkscape"
   viewBox="0 0 16 16"
   id="svg6"
   version="1.1"
   sodipodi:docname="folder-download-symbolic.svg"
   inkscape:version="0.92.5 (2060ec1f9f, 2020-04-08)">
  <metadata
     id="metadata8">
    <rdf:RDF>
      <cc:Work
         rdf:about="">
        <dc:format>image/svg+xml</dc:format>
        <dc:type
           rdf:resource="http://purl.org/dc/dcmitype/StillImage" />
        <dc:title></dc:title>
      </cc:Work>
    </rdf:RDF>
  </metadata>
  <sodipodi:namedview
     pagecolor="#ffffff"
     bordercolor="#666666"
     borderopacity="1"
     objecttolerance="10"
     gridtolerance="10"
     guidetolerance="10"
     inkscape:pageopacity="0"
     inkscape:pageshadow="2"
     inkscape:window-width="1085"
     inkscape:window-height="480"
     id="namedview6"
     showgrid="false"
     inkscape:zoom="14.75"
     inkscape:cx="8"
     inkscape:cy="8"
     inkscape:window-x="0"
     inkscape:window-y="25"
     inkscape:window-maximized="0"
     inkscape:current-layer="svg6" />
  <defs
     id="defs3051">
    <style
       id="current-color-scheme"
       type="text/css">
      .ColorScheme-Text {
        color:#f9f9f9;
      }
    </style>
  </defs>
  <path
     d="M 6.03,2 A 0.03,0.03 0 0 0 6,2.03 V 7.97 C 6,7.987 6.013,8 6.03,8 H 6.97 A 0.03,0.03 0 0 0 7,7.97 V 3 H 9 V 7.97 C 9,7.987 9.013,8 9.03,8 H 9.97 A 0.03,0.03 0 0 0 10,7.97 V 2.03 A 0.03,0.03 0 0 0 9.97,2 Z M 2.321,6.95 1.655,7.615 a 0.029,0.029 0 0 0 0,0.041 l 5.658,5.658 0.665,0.665 a 0.031,0.031 0 0 0 0.042,0 l 0.665,-0.665 5.658,-5.658 a 0.029,0.029 0 0 0 0,-0.04 L 13.677,6.949 a 0.029,0.029 0 0 0 -0.041,0 L 8,12.586 2.363,6.949 a 0.029,0.029 0 0 0 -0.04,0 z"
     id="rect820"
     stroke-miterlimit="4"
     inkscape:connector-curvature="0"
     class="ColorScheme-Text"
     style="fill:currentColor" />
</svg>
