<?xml version="1.0" encoding="UTF-8" standalone="no"?>
<svg
   xmlns:dc="http://purl.org/dc/elements/1.1/"
   xmlns:cc="http://creativecommons.org/ns#"
   xmlns:rdf="http://www.w3.org/1999/02/22-rdf-syntax-ns#"
   xmlns:svg="http://www.w3.org/2000/svg"
   xmlns="http://www.w3.org/2000/svg"
   xmlns:sodipodi="http://sodipodi.sourceforge.net/DTD/sodipodi-0.dtd"
   xmlns:inkscape="http://www.inkscape.org/namespaces/inkscape"
   viewBox="0 0 16 16"
   id="svg6"
   version="1.1"
   sodipodi:docname="folder-drag-accept-symbolic(1).svg"
   inkscape:version="0.92.5 (2060ec1f9f, 2020-04-08)">
  <metadata
     id="metadata9">
    <rdf:RDF>
      <cc:Work
         rdf:about="">
        <dc:format>image/svg+xml</dc:format>
        <dc:type
           rdf:resource="http://purl.org/dc/dcmitype/StillImage" />
        <dc:title></dc:title>
      </cc:Work>
    </rdf:RDF>
  </metadata>
  <sodipodi:namedview
     pagecolor="#ffffff"
     bordercolor="#666666"
     borderopacity="1"
     objecttolerance="10"
     gridtolerance="10"
     guidetolerance="10"
     inkscape:pageopacity="0"
     inkscape:pageshadow="2"
     inkscape:window-width="1085"
     inkscape:window-height="480"
     id="namedview7"
     showgrid="false"
     inkscape:zoom="14.75"
     inkscape:cx="8"
     inkscape:cy="8"
     inkscape:window-x="0"
     inkscape:window-y="25"
     inkscape:window-maximized="0"
     inkscape:current-layer="svg6" />
  <defs
     id="defs3051">
    <style
       id="current-color-scheme"
       type="text/css">
      .ColorScheme-Text {
        color:#f9f9f9;
      }
      .ColorScheme-Highlight {
        color:#ebebeb;
      }
    </style>
  </defs>
  <path
     d="m 2,5 v 8.97 C 2,13.988 2.012,14 2.03,14 h 11.94 a 0.03,0.03 0 0 0 0.003,0 0.03,0.03 0 0 0 0.006,-0.002 0.03,0.03 0 0 0 0.005,-0.002 0.03,0.03 0 0 0 0.002,-0.002 0.03,0.03 0 0 0 0.006,-0.004 0.03,0.03 0 0 0 0.002,-0.002 0.03,0.03 0 0 0 0.002,-0.002 0.03,0.03 0 0 0 0,-0.002 0.03,0.03 0 0 0 0.002,-0.005 A 0.03,0.03 0 0 0 14,13.973 0.03,0.03 0 0 0 14,13.971 V 4.029 A 0.03,0.03 0 0 0 14,4.027 0.03,0.03 0 0 0 13.998,4.021 0.03,0.03 0 0 0 13.996,4.016 0.03,0.03 0 0 0 13.994,4.014 0.03,0.03 0 0 0 13.99,4.008 0.03,0.03 0 0 0 13.988,4.006 0.03,0.03 0 0 0 13.986,4.004 0.03,0.03 0 0 0 13.984,4.004 0.03,0.03 0 0 0 13.979,4.002 0.03,0.03 0 0 0 13.973,4 0.03,0.03 0 0 0 13.971,4 H 8.035 A 0.025,0.025 0 0 0 8.037,3.998 0.025,0.025 0 0 0 8.043,3.996 0.025,0.025 0 0 0 8.045,3.994 0.025,0.025 0 0 0 8.047,3.992 a 0.025,0.025 0 0 0 0.002,0 0.025,0.025 0 0 0 0,-0.002 0.025,0.025 0 0 0 0.004,-0.006 0.025,0.025 0 0 0 0,-0.002 0.025,0.025 0 0 0 0,-0.002 0.025,0.025 0 0 0 0.002,-10e-4 0.025,0.025 0 0 0 0,-0.004 V 3.945 L 8,4 H 7 v 1 h 5.97 a 0.03,0.03 0 0 1 0.003,0 0.03,0.03 0 0 1 0.006,0.002 0.03,0.03 0 0 1 0.005,0.002 0.03,0.03 0 0 1 0.002,0.002 0.03,0.03 0 0 1 0.006,0.004 0.03,0.03 0 0 1 0.002,0.002 0.03,0.03 0 0 1 0.002,0.002 0.03,0.03 0 0 1 0,0.002 0.03,0.03 0 0 1 0.002,0.005 0.03,0.03 0 0 1 0.002,0.006 0.03,0.03 0 0 1 0,0.002 v 7.942 a 0.03,0.03 0 0 1 0,0.002 0.03,0.03 0 0 1 -0.002,0.006 0.03,0.03 0 0 1 -0.002,0.005 0.03,0.03 0 0 1 -0.002,0.002 0.03,0.03 0 0 1 -0.004,0.006 0.03,0.03 0 0 1 -0.002,0.002 0.03,0.03 0 0 1 -0.002,0.002 0.03,0.03 0 0 1 -0.002,0 0.03,0.03 0 0 1 -0.005,0.002 A 0.03,0.03 0 0 1 12.973,13 0.03,0.03 0 0 1 12.971,13 H 3.029 A 0.03,0.03 0 0 1 3.027,13 0.03,0.03 0 0 1 3.021,12.998 0.03,0.03 0 0 1 3.016,12.996 0.03,0.03 0 0 1 3.014,12.994 0.03,0.03 0 0 1 3.008,12.99 0.03,0.03 0 0 1 3.006,12.988 0.03,0.03 0 0 1 3.004,12.986 0.03,0.03 0 0 1 3.004,12.984 0.03,0.03 0 0 1 3.002,12.979 0.03,0.03 0 0 1 3,12.973 0.03,0.03 0 0 1 3,12.971 V 5 Z"
     id="path821"
     inkscape:connector-curvature="0"
     class="ColorScheme-Text"
     style="fill:currentColor" />
  <path
     d="M 2,5 H 3 V 3 H 7 V 4 H 8 L 8.055,3.945 v -1.92 a 0.025,0.025 0 0 0 0,-0.002 0.025,0.025 0 0 0 -0.002,-0.005 0.025,0.025 0 0 0 0,-0.002 A 0.025,0.025 0 0 0 8.051,2.014 0.025,0.025 0 0 0 8.049,2.012 0.025,0.025 0 0 0 8.049,2.01 0.025,0.025 0 0 0 8.047,2.008 0.025,0.025 0 0 0 8.045,2.006 0.025,0.025 0 0 0 8.043,2.004 0.025,0.025 0 0 0 8.041,2.002 0.025,0.025 0 0 0 8.039,2.002 0.025,0.025 0 0 0 8.033,2 0.025,0.025 0 0 0 8.031,2 0.025,0.025 0 0 0 8.029,2 0.025,0.025 0 0 0 8.027,2 H 2.025 a 0.025,0.025 0 0 0 -0.002,0 0.025,0.025 0 0 0 -0.005,0.002 0.025,0.025 0 0 0 -0.002,0 0.025,0.025 0 0 0 -0.002,0.002 0.025,0.025 0 0 0 -0.002,0 A 0.025,0.025 0 0 0 2.01,2.006 0.025,0.025 0 0 0 2.008,2.008 0.025,0.025 0 0 0 2.006,2.01 0.025,0.025 0 0 0 2.004,2.012 0.025,0.025 0 0 0 2.002,2.014 0.025,0.025 0 0 0 2.002,2.016 0.025,0.025 0 0 0 2,2.018 0.025,0.025 0 0 0 2,2.023 0.025,0.025 0 0 0 2,2.025 v 1.95 C 2,3.988 2.01,3.999 2.023,4 A 0.03,0.03 0 0 0 2.018,4.002 0.03,0.03 0 0 0 2.016,4.004 0.03,0.03 0 0 0 2.01,4.008 0.03,0.03 0 0 0 2.008,4.01 0.03,0.03 0 0 0 2.006,4.012 0.03,0.03 0 0 0 2.004,4.014 0.03,0.03 0 0 0 2.002,4.02 0.03,0.03 0 0 0 2,4.025 0.03,0.03 0 0 0 2,4.029 Z"
     id="rect820"
     inkscape:connector-curvature="0"
     class="ColorScheme-Highlight"
     style="fill:currentColor" />
</svg>
