<?xml version="1.0" encoding="UTF-8" standalone="no"?>
<svg
   xmlns:dc="http://purl.org/dc/elements/1.1/"
   xmlns:cc="http://creativecommons.org/ns#"
   xmlns:rdf="http://www.w3.org/1999/02/22-rdf-syntax-ns#"
   xmlns:svg="http://www.w3.org/2000/svg"
   xmlns="http://www.w3.org/2000/svg"
   xmlns:xlink="http://www.w3.org/1999/xlink"
   xmlns:sodipodi="http://sodipodi.sourceforge.net/DTD/sodipodi-0.dtd"
   xmlns:inkscape="http://www.inkscape.org/namespaces/inkscape"
   width="64"
   height="64"
   version="1.1"
   id="svg24"
   sodipodi:docname="system-file-manager.svg"
   inkscape:version="0.92.5 (2060ec1f9f, 2020-04-08)">
  <metadata
     id="metadata28">
    <rdf:RDF>
      <cc:Work
         rdf:about="">
        <dc:format>image/svg+xml</dc:format>
        <dc:type
           rdf:resource="http://purl.org/dc/dcmitype/StillImage" />
        <dc:title></dc:title>
      </cc:Work>
    </rdf:RDF>
  </metadata>
  <sodipodi:namedview
     pagecolor="#ffffff"
     bordercolor="#666666"
     borderopacity="1"
     objecttolerance="10"
     gridtolerance="10"
     guidetolerance="10"
     inkscape:pageopacity="0"
     inkscape:pageshadow="2"
     inkscape:window-width="1136"
     inkscape:window-height="480"
     id="namedview26"
     showgrid="false"
     inkscape:zoom="3.6875"
     inkscape:cx="2.8474576"
     inkscape:cy="32"
     inkscape:window-x="0"
     inkscape:window-y="25"
     inkscape:window-maximized="0"
     inkscape:current-layer="svg24" />
  <defs
     id="defs8">
  <defs
     id="defs12" />
    <style
       id="current-color-scheme"
       type="text/css">
      .ColorScheme-Highlight {
        color:#ebebeb;
      }
    </style>
    <linearGradient
       id="a">
      <stop
         offset="0"
         stop-opacity=".392"
         id="stop2" />
      <stop
         offset="1"
         stop-opacity=".026"
         id="stop4" />
    </linearGradient>
    <linearGradient
       xlink:href="#a"
       id="b"
       x1="5"
       y1="59"
       x2="5"
       y2="19"
       gradientUnits="userSpaceOnUse" />
  </defs>
  <path
     d="M 10,4 C 7.23,4 5,6.23 5,9 V 44 H 60 V 14 A 5.005,5.005 0 0 0 58.54,10.46 4.989,4.989 0 0 0 55,9 H 30 L 25,4 Z"
     id="path10"
     inkscape:connector-curvature="0"
     class="ColorScheme-Highlight"
     style="fill:currentColor" />
  <path
     d="M 10,4 C 7.23,4 5,6.23 5,9 V 44 H 60 V 14 A 5.005,5.005 0 0 0 58.54,10.46 4.989,4.989 0 0 0 55,9 H 30 L 25,4 Z"
     id="path12"
     inkscape:connector-curvature="0"
     style="opacity:0.5" />
  <rect
     width="45"
     height="25"
     x="10"
     y="14"
     ry="5"
     rx="5"
     id="rect14"
     style="fill:#ffffff" />
  <path
     d="m 35,21 -5,5 H 10 c -2.77,0 -5,2.23 -5,5 v 28 h 50 c 2.77,0 5,-2.23 5,-5 V 26 c 0,-2.77 -2.23,-5 -5,-5 z"
     id="path16"
     inkscape:connector-curvature="0"
     class="ColorScheme-Highlight"
     style="fill:currentColor" />
  <path
     d="M 10,4 C 7.23,4 5,6.23 5,9 v 2 A 5.005,5.005 0 0 1 6.46,7.46 4.989,4.989 0 0 1 10,6 h 15 l 5,5 H 55 A 5.005,5.005 0 0 1 58.54,12.46 4.989,4.989 0 0 1 60,16 V 14 A 5.005,5.005 0 0 0 58.54,10.46 4.989,4.989 0 0 0 55,9 H 30 L 25,4 Z"
     id="path18"
     inkscape:connector-curvature="0"
     style="opacity:0.15;fill:#ffffff" />
  <path
     d="m 35,21 -5,5 H 10 c -2.77,0 -5,2.23 -5,5 v 28 h 50 c 2.77,0 5,-2.23 5,-5 V 26 c 0,-2.77 -2.23,-5 -5,-5 z"
     id="path20"
     style="fill:url(#b)"
     inkscape:connector-curvature="0" />
  <path
     d="m 35,21 -5,5 H 10 A 5.005,5.005 0 0 0 6.46,27.46 4.989,4.989 0 0 0 5,31 v 2 A 5.005,5.005 0 0 1 6.46,29.46 4.989,4.989 0 0 1 10,28 h 20 l 5,-5 H 55 A 5.005,5.005 0 0 1 58.54,24.46 4.989,4.989 0 0 1 60,28 v -2 c 0,-2.77 -2.23,-5 -5,-5 z M 60,52 A 5.005,5.005 0 0 1 58.54,55.54 4.989,4.989 0 0 1 55,57 H 5 v 2 h 50 c 2.77,0 5,-2.23 5,-5 z"
     id="path22"
     inkscape:connector-curvature="0"
     style="opacity:0.15" />
</svg>
