<?xml version="1.0" encoding="UTF-8" standalone="no"?>
<svg
   xmlns:dc="http://purl.org/dc/elements/1.1/"
   xmlns:cc="http://creativecommons.org/ns#"
   xmlns:rdf="http://www.w3.org/1999/02/22-rdf-syntax-ns#"
   xmlns:svg="http://www.w3.org/2000/svg"
   xmlns="http://www.w3.org/2000/svg"
   xmlns:sodipodi="http://sodipodi.sourceforge.net/DTD/sodipodi-0.dtd"
   xmlns:inkscape="http://www.inkscape.org/namespaces/inkscape"
   viewBox="0 0 22 22"
   id="svg6"
   version="1.1"
   sodipodi:docname="plasmavault.svg"
   inkscape:version="0.92.5 (2060ec1f9f, 2020-04-08)">
  <metadata
     id="metadata9">
    <rdf:RDF>
      <cc:Work
         rdf:about="">
        <dc:format>image/svg+xml</dc:format>
        <dc:type
           rdf:resource="http://purl.org/dc/dcmitype/StillImage" />
        <dc:title></dc:title>
      </cc:Work>
    </rdf:RDF>
  </metadata>
  <sodipodi:namedview
     pagecolor="#ffffff"
     bordercolor="#666666"
     borderopacity="1"
     objecttolerance="10"
     gridtolerance="10"
     guidetolerance="10"
     inkscape:pageopacity="0"
     inkscape:pageshadow="2"
     inkscape:window-width="1085"
     inkscape:window-height="480"
     id="namedview7"
     showgrid="false"
     inkscape:zoom="10.727273"
     inkscape:cx="0.97881356"
     inkscape:cy="11"
     inkscape:window-x="0"
     inkscape:window-y="25"
     inkscape:window-maximized="0"
     inkscape:current-layer="svg6" />
  <defs
     id="defs1">
    <style
       id="current-color-scheme"
       type="text/css">
      .ColorScheme-Highlight {
        color:#ebebeb;
      }
    </style>
  </defs>
  <path
     d="M 3,2 C 2.446,2 2,2.446 2,3 v 16 c 0,0.554 0.446,1 1,1 h 16 c 0.554,0 1,-0.446 1,-1 V 6 C 20,5.446 19.554,5 19,5 H 12 L 9,2 Z"
     id="path821"
     stroke-miterlimit="4"
     inkscape:connector-curvature="0"
     class="ColorScheme-Highlight"
     style="fill:currentColor" />
  <path
     d="m 14,7 a 3,3 0 0 0 -3,3 v 1 h -1 v 7 h 8 V 11 H 17 V 10 A 3,3 0 0 0 14,7 Z m 0,1 a 2,2 0 0 1 2,2 v 1 h -4 v -1 a 2,2 0 0 1 2,-2 z m -1,5 h 2 v 2 h -2 z"
     id="rect824"
     stroke-miterlimit="4"
     inkscape:connector-curvature="0"
     style="opacity:0.5" />
</svg>
