<?xml version="1.0" encoding="UTF-8" standalone="no"?>
<svg
   xmlns:dc="http://purl.org/dc/elements/1.1/"
   xmlns:cc="http://creativecommons.org/ns#"
   xmlns:rdf="http://www.w3.org/1999/02/22-rdf-syntax-ns#"
   xmlns:svg="http://www.w3.org/2000/svg"
   xmlns="http://www.w3.org/2000/svg"
   xmlns:sodipodi="http://sodipodi.sourceforge.net/DTD/sodipodi-0.dtd"
   xmlns:inkscape="http://www.inkscape.org/namespaces/inkscape"
   width="22"
   height="22"
   version="1.1"
   id="svg10"
   sodipodi:docname="system-file-manager.svg"
   inkscape:version="0.92.5 (2060ec1f9f, 2020-04-08)">
  <metadata
     id="metadata16">
    <rdf:RDF>
      <cc:Work
         rdf:about="">
        <dc:format>image/svg+xml</dc:format>
        <dc:type
           rdf:resource="http://purl.org/dc/dcmitype/StillImage" />
        <dc:title></dc:title>
      </cc:Work>
    </rdf:RDF>
  </metadata>
  <defs
     id="defs14" />
    <style
       id="current-color-scheme"
       type="text/css">
      .ColorScheme-Highlight {
        color:#ebebeb;
      }
    </style>
  <sodipodi:namedview
     pagecolor="#ffffff"
     bordercolor="#666666"
     borderopacity="1"
     objecttolerance="10"
     gridtolerance="10"
     guidetolerance="10"
     inkscape:pageopacity="0"
     inkscape:pageshadow="2"
     inkscape:window-width="1085"
     inkscape:window-height="480"
     id="namedview12"
     showgrid="false"
     inkscape:zoom="10.727273"
     inkscape:cx="0.97881356"
     inkscape:cy="11"
     inkscape:window-x="0"
     inkscape:window-y="25"
     inkscape:window-maximized="0"
     inkscape:current-layer="svg10" />
  <path
     class="ColorScheme-Highlight"
     style="fill:currentColor"
     d="M 3.82,2 C 3.82,2 2.013,1.963 2.013,3.794 L 2.021,4.328 2,4.323 V 12 H 20 V 7.51 l 0.018,0.015 0.041,-1.252 c 0.063,-1.83 -1.803,-1.83 -1.803,-1.83 H 11.639 L 9.234,2 Z"
     id="path2"
     inkscape:connector-curvature="0" />
  <path
     d="M 3.82,2 C 3.82,2 2.013,1.963 2.013,3.794 L 2.021,4.328 2,4.323 V 12 H 20 V 7.51 l 0.018,0.015 0.041,-1.252 c 0.063,-1.83 -1.803,-1.83 -1.803,-1.83 H 11.639 L 9.234,2 Z"
     style="opacity:0.5"
     id="path4"
     inkscape:connector-curvature="0" />
  <rect
     width="16"
     height="9"
     x="3"
     y="6"
     ry="0.86199999"
     id="rect6"
     style="fill:#ffffff" />
  <path
     class="ColorScheme-Highlight"
     style="fill:currentColor"
     d="M 10.397,7.653 8,10 H 3.799 C 3.799,10 2,10.001 2,11.761 V 20 h 16.197 c 0,0 1.8,0 1.8,-1.76 l 0.001,-4.495 V 12.008 L 20,9.376 C 20,7.616 18.197,7.653 18.197,7.653 Z"
     id="path8"
     inkscape:connector-curvature="0" />
</svg>
